<svg viewBox="0 0 120 120" xmlns="http://www.w3.org/2000/svg">
    <!-- Círculo exterior -->
    <circle cx="60" cy="60" r="58" fill="none" stroke="#60A5FA" stroke-width="2" opacity="0.4"/>
    
    <!-- Círculo medio -->
    <circle cx="60" cy="60" r="45" fill="none" stroke="#60A5FA" stroke-width="2" stroke-dasharray="8,4" opacity="0.7"/>
    
    <!-- Puntos orbitales estáticos -->
    <circle cx="105" cy="60" r="4" fill="#60A5FA"/>
    <circle cx="15" cy="60" r="3" fill="#FB923C"/>
    <circle cx="60" cy="15" r="3" fill="#A78BFA"/>
    <circle cx="60" cy="105" r="3" fill="#38BDF8"/>
    
    <!-- Núcleo central - más brillante para modo oscuro -->
    <circle cx="60" cy="60" r="10" fill="#FFFFFF"/>
    <circle cx="60" cy="60" r="8" fill="#60A5FA"/>
    
    <!-- Nodos principales - colores más brillantes -->
    <circle cx="40" cy="45" r="5" fill="#FB923C"/>
    <circle cx="80" cy="45" r="5" fill="#60A5FA"/>
    <circle cx="35" cy="75" r="5" fill="#A78BFA"/>
    <circle cx="85" cy="75" r="5" fill="#38BDF8"/>
    
    <!-- Nodos secundarios -->
    <circle cx="25" cy="35" r="3" fill="#FBBF24"/>
    <circle cx="95" cy="35" r="3" fill="#34D399"/>
    <circle cx="25" cy="85" r="3" fill="#6EE7B7"/>
    <circle cx="95" cy="85" r="3" fill="#FB923C"/>
    
    <!-- Conexiones principales - más brillantes -->
    <line x1="60" y1="60" x2="40" y2="45" stroke="#60A5FA" stroke-width="3" opacity="0.9"/>
    <line x1="60" y1="60" x2="80" y2="45" stroke="#60A5FA" stroke-width="3" opacity="0.9"/>
    <line x1="60" y1="60" x2="35" y2="75" stroke="#60A5FA" stroke-width="3" opacity="0.9"/>
    <line x1="60" y1="60" x2="85" y2="75" stroke="#60A5FA" stroke-width="3" opacity="0.9"/>
    
    <!-- Conexiones secundarias -->
    <line x1="40" y1="45" x2="25" y2="35" stroke="#FB923C" stroke-width="2" opacity="0.7"/>
    <line x1="80" y1="45" x2="95" y2="35" stroke="#FB923C" stroke-width="2" opacity="0.7"/>
    <line x1="35" y1="75" x2="25" y2="85" stroke="#A78BFA" stroke-width="2" opacity="0.7"/>
    <line x1="85" y1="75" x2="95" y2="85" stroke="#38BDF8" stroke-width="2" opacity="0.7"/>
</svg>
