<svg viewBox="0 0 120 120" xmlns="http://www.w3.org/2000/svg">
    <!-- Círculo exterior -->
    <circle cx="60" cy="60" r="58" fill="none" stroke="#1E40AF" stroke-width="2" opacity="0.3"/>
    
    <!-- Círculo medio -->
    <circle cx="60" cy="60" r="45" fill="none" stroke="#1E40AF" stroke-width="2" stroke-dasharray="8,4" opacity="0.6"/>
    
    <!-- Puntos orbitales estáticos -->
    <circle cx="105" cy="60" r="4" fill="#1E40AF"/>
    <circle cx="15" cy="60" r="3" fill="#F97316"/>
    <circle cx="60" cy="15" r="3" fill="#7C3AED"/>
    <circle cx="60" cy="105" r="3" fill="#0EA5E9"/>
    
    <!-- Núcleo central -->
    <circle cx="60" cy="60" r="10" fill="#FFFFFF"/>
    <circle cx="60" cy="60" r="8" fill="#1E40AF"/>
    
    <!-- Nodos principales -->
    <circle cx="40" cy="45" r="5" fill="#F97316"/>
    <circle cx="80" cy="45" r="5" fill="#1E40AF"/>
    <circle cx="35" cy="75" r="5" fill="#7C3AED"/>
    <circle cx="85" cy="75" r="5" fill="#0EA5E9"/>
    
    <!-- Nodos secundarios -->
    <circle cx="25" cy="35" r="3" fill="#F59E0B"/>
    <circle cx="95" cy="35" r="3" fill="#059669"/>
    <circle cx="25" cy="85" r="3" fill="#10B981"/>
    <circle cx="95" cy="85" r="3" fill="#F97316"/>
    
    <!-- Conexiones principales -->
    <line x1="60" y1="60" x2="40" y2="45" stroke="#1E40AF" stroke-width="3" opacity="0.8"/>
    <line x1="60" y1="60" x2="80" y2="45" stroke="#1E40AF" stroke-width="3" opacity="0.8"/>
    <line x1="60" y1="60" x2="35" y2="75" stroke="#1E40AF" stroke-width="3" opacity="0.8"/>
    <line x1="60" y1="60" x2="85" y2="75" stroke="#1E40AF" stroke-width="3" opacity="0.8"/>
    
    <!-- Conexiones secundarias -->
    <line x1="40" y1="45" x2="25" y2="35" stroke="#F97316" stroke-width="2" opacity="0.6"/>
    <line x1="80" y1="45" x2="95" y2="35" stroke="#F97316" stroke-width="2" opacity="0.6"/>
    <line x1="35" y1="75" x2="25" y2="85" stroke="#7C3AED" stroke-width="2" opacity="0.6"/>
    <line x1="85" y1="75" x2="95" y2="85" stroke="#0EA5E9" stroke-width="2" opacity="0.6"/>
</svg>
